<?xml version="1.0" standalone="no"?>
<!DOCTYPE svg PUBLIC "-//W3C//DTD SVG 20010904//EN"
 "http://www.w3.org/TR/2001/REC-SVG-20010904/DTD/svg10.dtd">
<svg version="1.0" xmlns="http://www.w3.org/2000/svg"
 width="500.000000pt" height="500.000000pt" viewBox="0 0 500.000000 500.000000"
 preserveAspectRatio="xMidYMid meet">

<g transform="translate(0.000000,500.000000) scale(0.100000,-0.100000)"
fill="#000000" stroke="none">
<path d="M2445 3414 c-121 -30 -246 -143 -339 -305 -68 -119 -130 -312 -155
-486 -25 -168 -7 -419 40 -579 24 -80 38 -94 95 -94 22 0 23 2 14 20 -71 132
-106 465 -71 670 65 380 240 655 446 701 43 9 64 9 102 -1 58 -16 147 -72 176
-112 17 -23 28 -28 64 -28 25 0 43 5 43 11 0 22 -146 155 -195 179 -49 23
-171 36 -220 24z"/>
<path d="M2600 3135 c-114 -22 -235 -61 -332 -106 -82 -40 -87 -44 -107 -92
-12 -28 -19 -52 -17 -55 3 -2 27 9 53 25 199 121 499 192 696 164 277 -38 423
-178 404 -385 -11 -116 -62 -221 -171 -350 -45 -52 -59 -77 -66 -118 -6 -28
-8 -53 -6 -55 8 -8 164 157 199 210 91 137 117 213 117 341 0 139 -31 210
-130 299 -55 49 -129 88 -217 112 -81 23 -324 29 -423 10z"/>
<path d="M2884 3008 c14 -34 56 -180 67 -233 19 -87 16 -389 -4 -490 -61 -306
-196 -537 -367 -626 -36 -19 -60 -24 -120 -24 -88 1 -135 21 -211 92 -44 41
-50 44 -96 41 l-48 -3 70 -71 c161 -164 342 -185 511 -58 164 121 285 357 339
659 20 107 19 374 0 485 -20 112 -51 222 -67 232 -21 13 -80 10 -74 -4z"/>
<path d="M1869 2753 c-96 -99 -151 -175 -195 -268 -97 -207 -78 -379 55 -512
106 -104 241 -147 461 -147 195 0 343 33 524 117 81 38 90 44 107 85 31 71 26
75 -43 35 -186 -109 -386 -163 -598 -163 -186 1 -308 40 -400 130 -95 93 -115
239 -54 395 18 46 80 142 131 201 41 50 56 75 63 115 5 28 12 55 15 60 17 27
-18 2 -66 -48z"/>
<path d="M2430 2613 c-76 -38 -100 -143 -48 -208 61 -77 176 -69 228 17 69
114 -60 251 -180 191z"/>
</g>
</svg>
